<?xml version="1.0" encoding="UTF-8" standalone="no"?>
<!-- Created with Inkscape (http://www.inkscape.org/) -->

<svg
   version="1.1"
   id="svg2"
   width="419.69458"
   height="274.96249"
   viewBox="0 0 419.69458 274.96249"
   sodipodi:docname="ferris-and-corro.svg"
   inkscape:version="1.2.2 (b0a84865, 2022-12-01)"
   xmlns:inkscape="http://www.inkscape.org/namespaces/inkscape"
   xmlns:sodipodi="http://sodipodi.sourceforge.net/DTD/sodipodi-0.dtd"
   xmlns="http://www.w3.org/2000/svg"
   xmlns:svg="http://www.w3.org/2000/svg">
  <defs
     id="defs6" />
  <sodipodi:namedview
     id="namedview4"
     pagecolor="#ffffff"
     bordercolor="#666666"
     borderopacity="1.0"
     inkscape:showpageshadow="2"
     inkscape:pageopacity="0.0"
     inkscape:pagecheckerboard="0"
     inkscape:deskcolor="#d1d1d1"
     showgrid="false"
     inkscape:zoom="0.6395664"
     inkscape:cx="527.70127"
     inkscape:cy="-193.09958"
     inkscape:window-width="1395"
     inkscape:window-height="793"
     inkscape:window-x="0"
     inkscape:window-y="44"
     inkscape:window-maximized="0"
     inkscape:current-layer="g8" />
  <g
     inkscape:groupmode="layer"
     inkscape:label="Image"
     id="g8"
     transform="translate(-463.9035,-23.49155)">
    <path
       style="fill:#000000"
       d="m 681.66243,298.11402 c -0.22917,-0.20762 -19.47584,-0.64509 -42.77039,-0.97215 -40.2137,-0.56461 -68.6049,-2.09926 -67.64256,-3.65635 0.24182,-0.39129 8.88992,-0.49101 19.21798,-0.2216 10.32807,0.2694 34.5283,0.10229 53.7783,-0.37137 30.5995,-0.75291 33.36553,-0.94365 22,-1.5171 -7.15,-0.36075 -21.6625,-0.70721 -32.25,-0.76992 l -19.25,-0.114 v -3.60699 c 0,-3.02647 -0.28165,-3.49803 -1.75,-2.92997 -0.9625,0.37236 -2.9875,0.92676 -4.5,1.23199 -2.44253,0.49292 -2.75,0.26148 -2.75,-2.07003 0,-2.31107 -0.40073,-2.625 -3.35078,-2.625 -1.84292,0 -4.77563,-0.49671 -6.51712,-1.10379 -2.48881,-0.86761 -3.64413,-0.79984 -5.39922,0.3167 -1.82618,1.16176 -2.67673,1.19244 -4.66971,0.16843 -2.63317,-1.35294 -3.58811,-1.08892 -13.29123,3.67469 -5.46343,2.6822 -7.56858,1.801 -3.48819,-1.46014 2.69685,-2.15539 2.7256,-2.27745 0.92126,-3.91036 -2.41094,-2.18187 -3.46676,-2.12998 -10.90026,0.53568 -6.53224,2.34248 -8.52329,1.95962 -6.5169,-1.25312 2.98597,-4.78129 -0.11083,-5.38707 -4.94899,-0.96809 -1.99778,1.82469 -4.37258,3 -6.06172,3 -3.67466,0 -3.54255,-1.88482 0.23197,-3.30954 4.09833,-1.54695 3.23672,-3.08803 -2.06333,-3.69046 l -4.39892,-0.5 3.95441,-3.25 c 2.17493,-1.7875 4.30189,-3.25 4.72657,-3.25 0.42469,0 0.77216,-0.41968 0.77216,-0.93261 0,-1.90727 -3.98949,-2.07255 -13.41537,-0.55577 -5.32944,0.85759 -11.28376,1.26025 -13.23182,0.89479 -3.21841,-0.60378 -3.50344,-0.92671 -3.12056,-3.53544 l 0.42136,-2.87097 H 499.71124 484.0231 l 0.47791,-2.5 c 0.4641,-2.42779 0.71796,-2.5 8.78875,-2.5 7.71544,0 8.45442,-0.18253 10.31497,-2.54783 l 2.00412,-2.54784 5.56258,1.61709 c 5.24012,1.52334 9.57433,1.32128 9.57433,-0.44635 0,-0.43458 -7.7625,-3.33308 -17.25,-6.44111 -9.4875,-3.10802 -19.5,-6.73664 -22.25,-8.06359 l -5,-2.41263 18.5,-0.17855 c 10.175,-0.0982 19.60576,-0.48694 20.95725,-0.86386 2.25791,-0.62972 2.07132,-0.8327 -2.30024,-2.50222 -2.61662,-0.99929 -6.4618,-2.0455 -8.54485,-2.32489 -2.76162,-0.37041 -4.51996,-1.42614 -6.49239,-3.89811 l -2.70503,-3.39011 h 3.93184 c 2.35055,0 4.86047,-0.75195 6.24084,-1.8697 2.21253,-1.7916 2.2276,-1.89498 0.36078,-2.47456 -1.07151,-0.33267 -8.8814,-1.737 -17.35531,-3.12074 -8.47391,-1.38373 -15.55669,-2.66546 -15.73951,-2.84829 -0.18283,-0.18283 0.22537,-1.56988 0.9071,-3.08235 1.17781,-2.61303 1.48846,-2.71831 6.23952,-2.11469 2.75,0.34939 9.725,1.77841 15.5,3.17559 9.54096,2.30831 31.3206,4.46374 29.91786,2.96083 -0.32018,-0.34304 -4.37018,-1.08975 -9,-1.65936 -15.07853,-1.85511 -16.4204,-2.35427 -7.91786,-2.94535 l 7.5,-0.52138 -11.98668,-3.50193 c -12.78352,-3.73473 -14.49375,-5.15224 -10.94599,-9.07248 0.95846,-1.05908 1.51482,-1.9256 1.23636,-1.9256 -0.27845,0 -5.80232,-1.34675 -12.27525,-2.99277 -10.16006,-2.58363 -19.43106,-6.43794 -18.27245,-7.59656 0.19866,-0.19865 3.03483,0.0683 6.3026,0.5933 4.87972,0.78394 29.84834,3.73675 54.94141,6.49742 8.48712,0.93374 1.67669,-1.34017 -13.74029,-4.58769 -14.32045,-3.01653 -21.28597,-5.6139 -24.41343,-9.10351 -1.82712,-2.03871 -1.81516,-2.05415 1.15372,-1.48866 1.65,0.31428 5.025,0.87276 7.5,1.24107 2.475,0.36831 5.26087,1.06898 6.19083,1.55705 1.24959,0.65581 2.09772,0.30648 3.25,-1.33864 0.85754,-1.22431 1.54946,-2.91339 1.5376,-3.75352 -0.032,-2.26475 -9.81247,-12.02749 -12.04935,-12.02749 -1.26241,0 -1.92908,-0.69118 -1.92908,-2 0,-2.15001 -1.46127,-2.6807 -2.54648,-0.92479 -0.42979,0.69542 -1.43096,0.35516 -2.8344,-0.9633 -1.19343,-1.12118 -6.56492,-4.09231 -11.93663,-6.60253 -12.94638,-6.04987 -11.07609,-8.71692 3.07985,-4.39188 3.94615,1.20567 4.41901,1.14559 6.37443,-0.80983 l 2.11209,-2.11209 20.0483,9.90221 c 11.02656,5.44622 20.40473,9.90221 20.84038,9.90221 0.43565,0 1.32316,-0.99232 1.97225,-2.20515 1.05447,-1.97029 0.76533,-2.56435 -2.71482,-5.57787 -2.14223,-1.855 -9.28473,-6.37519 -15.87221,-10.04486 -11.10483,-6.18613 -23.76908,-16.25913 -22.29501,-17.7332 1.0269,-1.02691 14.78084,3.31744 30.28125,9.56471 8.21101,3.30935 15.37132,5.8696 15.91182,5.68943 1.67297,-0.55766 -8.7958,-8.17351 -20.88591,-15.19415 -6.3442,-3.68403 -11.53491,-7.10339 -11.53491,-7.59857 0,-2.42188 8.6074,0.34315 16.83886,5.4093 5.44539,3.35143 9.80462,4.27918 17.94632,3.81941 3.38041,-0.1909 1.42829,-3.14188 -4.66493,-7.05188 -2.71838,-1.74438 -5.19338,-3.82536 -5.5,-4.62439 -0.30661,-0.79903 -1.7866,-1.45278 -3.28887,-1.45278 -1.94448,0 -2.42231,-0.30907 -1.65858,-1.0728 2.31941,-2.31941 10.35433,1.32852 22.03539,10.0043 2.66827,1.98179 3.46766,2.16745 4.75,1.1032 0.84799,-0.70377 1.54181,-1.85082 1.54181,-2.54899 0,-2.72874 -9.50358,-11.62189 -18.2784,-17.10433 -5.07188,-3.16888 -10.29479,-6.57605 -11.60646,-7.57149 l -2.38486,-1.80989 h 2.47207 c 1.35964,0 5.02032,1.82477 8.13486,4.05504 11.41497,8.17408 5.70442,1.80761 -14.697,-16.38511 -4.2126,-3.75653 -7.40343,-7.24403 -7.09073,-7.75 1.21856,-1.97166 6.60832,-0.91595 9.34311,1.83007 2.07975,2.08829 3.51713,2.67369 5.9736,2.43288 2.64889,-0.25969 3.90498,0.37431 6.93433,3.5 2.03471,2.09942 5.17178,5.98168 6.97125,8.62724 2.03657,2.99415 4.62572,5.37584 6.85809,6.30858 1.97247,0.82416 3.74594,1.33883 3.94104,1.14373 0.1951,-0.1951 -1.42854,-2.9822 -3.60809,-6.19355 -6.11688,-9.01263 -5.3497,-9.67837 3.9764,-3.45064 3.88471,2.59411 9.69949,8.23801 15.71173,15.25 5.24954,6.12247 11.36752,12.68715 13.5955,14.58818 l 4.05088,3.45642 -2.39866,-4.35932 c -1.31926,-2.39762 -4.54328,-6.59336 -7.16448,-9.32387 l -4.76581,-4.96455 0.64206,-6.26691 c 0.82274,-8.03037 -1.34036,-12.94193 -12.11043,-27.49819 -7.49306,-10.12722 -13.3109,-20.52243 -12.14065,-21.69268 0.8434,-0.8434 9.69517,5.1037 13.22721,8.88676 1.69761,1.81826 6.29019,7.6249 10.20574,12.90366 4.75682,6.41292 8.97115,10.87325 12.70029,13.4416 3.06962,2.11413 6.55048,5.41232 7.73525,7.32931 3.24129,5.24453 3.36792,1.85044 0.15459,-4.14372 -9.35072,-17.44292 -9.89852,-20.7868 -1.02254,-6.24172 5.51092,9.03073 5.85881,9.38414 8.31743,8.44937 4.30394,-1.63635 5.16388,-0.29716 9.75353,15.18919 2.53588,8.55652 5.56915,13.48691 5.56915,9.0523 0,-7.64531 -9.71383,-27.75894 -15.29358,-31.66715 -1.63492,-1.14514 -1.85234,-1.76099 -0.94282,-2.67052 0.90953,-0.90953 1.79474,-0.90303 3.8385,0.0282 1.46099,0.66567 2.84312,1.02355 3.07139,0.79528 0.22827,-0.22827 -1.91392,-6.65762 -4.76041,-14.28744 -5.60716,-15.02956 -7.35522,-25.80923 -4.92245,-30.35491 1.21165,-2.26397 1.28611,-2.21908 4.29457,2.58929 2.81779,4.50361 8.69761,16.4639 19.73489,40.14321 2.37136,5.0875 4.6388,9.25 5.03875,9.25 2.54782,0 2.52382,-8.96304 -0.0459,-17.1609 -2.44522,-7.80056 -2.47628,-8.84315 -0.2629,-8.82378 3.23244,0.0283 4.4364,1.6858 7.24781,9.97822 2.6625,7.8532 2.7228,8.427 1.24839,11.87913 -3.08151,7.21494 -1.71977,24.77411 1.75474,22.62675 0.42588,-0.26321 1.77268,-4.17851 2.99289,-8.70066 2.29383,-8.50105 2.31936,-15.51154 0.0664,-18.22623 -0.77802,-0.93746 -1.35045,-7.80869 -1.6651,-19.98744 -0.49,-18.96596 0.0959,-23.10137 3.10931,-21.94503 1.87586,0.71984 3.12799,5.73667 3.95843,15.85994 0.36094,4.4 1.04945,8.39749 1.53002,8.88331 0.50079,0.50626 1.57458,-1.62808 2.51553,-5 3.03406,-10.8727 3.72696,-12.86808 5.741,-16.53258 1.10312,-2.0071 3.10256,-4.2363 4.44318,-4.95378 2.89643,-1.55012 3.25324,-1.15444 6.36609,7.05963 2.90743,7.67201 3.43404,18.89963 1.96946,41.99011 -0.69683,10.98618 -0.93042,22.13002 -0.51908,24.76409 l 0.74787,4.78922 1.29547,-3.5 c 0.86988,-2.35017 1.32047,-9.39699 1.37155,-21.45 0.0481,-11.35231 0.42569,-17.60039 1.02725,-16.99883 0.52314,0.52314 1.08564,4.32564 1.25,8.45 l 0.29875,7.49883 1.4364,-5.5 c 0.79001,-3.025 1.53987,-10.60592 1.66634,-16.8465 0.20201,-9.96774 0.48526,-11.61826 2.33096,-13.58293 1.3997,-1.4899 2.57843,-4.95186 3.53128,-10.37136 0.78664,-4.47422 1.89133,-8.99646 2.45486,-10.04943 1.26348,-2.36083 4.0857,-3.54424 5.37577,-2.25416 2.02461,2.02461 1.93704,14.50622 -0.18779,26.7654 -2.3743,13.69846 -2.61528,19.58483 -0.99238,24.24028 1.07369,3.07999 1.18734,3.13467 3.03681,1.46092 1.05675,-0.95635 3.89572,-5.87969 6.30881,-10.94076 4.47207,-9.37943 7.22372,-12.42146 11.23577,-12.42146 2.7901,0 4.18814,-2.60752 7.77426,-14.5 2.72635,-9.04122 7.15032,-18.5 8.65266,-18.5 0.44323,0 1.31878,0.95836 1.94566,2.12969 1.57851,2.94948 -0.14382,11.13491 -5.14389,24.44652 -2.18635,5.82069 -4.33786,13.23504 -4.78114,16.47633 -1.57453,11.5132 1.1889,15.9864 4.7553,7.69746 1.00573,-2.3375 5.02823,-8.075 8.9389,-12.75 6.98734,-8.35301 13.16142,-18.33255 13.16142,-21.27361 0,-1.40062 7.25473,-8.72639 8.64177,-8.72639 0.3498,0 0.39124,2.69932 0.0921,5.99849 -0.54545,6.01535 -5.17088,17.61697 -8.48267,21.27646 -1.51522,1.6743 -1.50173,2.03089 0.18489,4.88612 1.55326,2.62946 1.71736,4.33769 1.1218,11.67769 l -0.69762,8.59769 2.18277,-1.96823 c 2.13463,-1.92481 10.9121,-14.88138 18.35251,-27.09041 2.05203,-3.36721 3.77044,-7.5106 3.81869,-9.20755 0.1066,-3.74921 4.80627,-8.76011 7.31361,-7.79795 2.61208,1.00235 1.04299,7.68165 -4.55643,19.39571 -4.21697,8.82196 -4.76432,10.64645 -3.88656,12.95514 1.76617,4.64537 0.0189,9.86122 -6.80695,20.31924 -3.59889,5.51396 -6.32122,10.2476 -6.04963,10.5192 1.07929,1.07929 11.27219,-9.37818 18.93986,-19.43146 4.4592,-5.84657 8.60809,-10.81163 9.21976,-11.03345 0.61167,-0.22182 2.88063,-2.35932 5.04214,-4.75 2.48687,-2.75053 4.78195,-4.34669 6.25,-4.34669 4.36326,0 2.78469,3.93624 -4.43002,11.04652 -6.72014,6.62287 -22.25,24.32725 -22.25,25.3655 0,1.40826 4.78456,-1.85973 6.53341,-4.46252 1.08163,-1.60976 2.5395,-3.14681 3.23973,-3.41566 2.16156,-0.82994 -0.14659,2.40476 -7.51012,10.52489 -7.89547,8.70673 -11.71933,13.81829 -10.92867,14.60895 0.89704,0.89704 11.06476,-9.23591 15.79398,-15.73998 3.54531,-4.87584 4.77935,-5.91064 6.52839,-5.47438 1.52971,0.38157 3.90321,-0.77491 8.1642,-3.97795 11.2129,-8.4289 15.17906,-14.55441 15.17906,-23.44325 0,-4.33541 0.27203,-5.03212 1.96482,-5.03212 2.17059,0 4.03518,2.74212 4.03518,5.93426 0,2.8157 0.86163,2.62624 6.57398,-1.44555 4.16874,-2.9715 4.98165,-3.2482 5.28789,-1.79985 0.23188,1.09665 -2.00477,3.88475 -6.2262,7.7613 -7.85461,7.2129 -8.59258,9.04984 -3.63567,9.04984 2.40201,0 3.5,0.45807 3.5,1.46017 0,0.80309 -1.575,2.46524 -3.5,3.69367 -8.45594,5.39612 -11.00119,8.34616 -7.20093,8.34616 1.70114,0 4.56853,-1.70567 14.06261,-8.36514 4.33149,-3.03825 8.36288,-3.09801 9.49767,-0.14078 0.42314,1.10268 -1.36388,2.49024 -6.60891,5.1316 -16.35057,8.23401 -25.21078,15.47586 -29.69972,24.27491 -1.96994,3.86139 -1.98586,4.09941 -0.27415,4.09941 0.99947,0 4.90034,-2.025 8.66859,-4.5 7.20343,-4.73123 11.28927,-6.08609 8.29315,-2.75 -0.86441,0.9625 -2.47659,4.14057 -3.58261,7.06238 -2.34393,6.19201 -2.28684,6.169 7.50775,-3.02614 4.53174,-4.2544 6.91439,-5.78372 9,-5.77674 2.55695,0.009 2.23386,0.39188 -3.27771,3.88876 -5.81795,3.69126 -11.38574,9.5097 -11.38574,11.8983 0,1.40096 5.35188,-0.20502 17.19339,-5.15936 4.78137,-2.00046 8.94387,-3.6372 9.25,-3.6372 0.30614,0 0.55661,1.73931 0.55661,3.86514 0,4.95245 -2.45012,8.05567 -10.07721,12.76338 -3.29034,2.03091 -5.82154,4.18282 -5.62489,4.78202 0.19665,0.5992 2.20667,1.22645 4.46671,1.39387 3.4883,0.25842 4.68531,-0.211 7.92228,-3.10685 2.86989,-2.56745 5.07688,-3.57426 8.92207,-4.07015 2.80992,-0.36238 9.08184,-2.0018 13.93758,-3.64314 4.85575,-1.64135 8.98505,-2.98427 9.17623,-2.98427 0.19118,0 -0.11569,0.86566 -0.68193,1.92368 -0.56623,1.05803 -3.61957,3.13382 -6.78518,4.61289 -18.41067,8.60196 -18.16119,8.4461 -20.84305,13.02233 -1.43146,2.44261 -3.06928,4.4411 -3.6396,4.4411 -1.38025,0 -7.99296,4.11338 -7.46365,4.6427 0.22801,0.228 3.87352,-0.91737 8.10113,-2.54527 4.22761,-1.62791 9.12723,-3.23537 10.88804,-3.57213 2.8832,-0.55142 3.00437,-0.4837 1.21888,0.6812 -1.09042,0.71143 -6.91757,3.7685 -12.94922,6.7935 -10.06179,5.0462 -13.10889,7.80336 -8.06819,7.30047 6.84493,-0.68289 15.21382,-2.53816 17.13875,-3.79943 1.32626,-0.869 3.40013,-1.24941 5.05506,-0.92725 1.54341,0.30045 4.60619,-0.0801 6.80619,-0.84562 2.97932,-1.03673 6.93445,-1.23636 15.5,-0.78237 l 11.5,0.60954 -8,3.97233 c -5.58416,2.77276 -8.39395,4.80278 -9.30457,6.72233 -0.71751,1.5125 -2.06751,2.75168 -3,2.75374 -0.93248,0.002 -3.18524,0.91205 -5.00611,2.0222 -2.77362,1.69103 -3.91425,1.85594 -7.0313,1.01661 -4.35155,-1.17175 -14.45192,0.16451 -20.04533,2.65195 -5.70295,2.53616 -1.22516,2.86577 9.71415,0.71506 8.37737,-1.64702 9.59896,-1.68095 12,-0.33328 4.62994,2.59872 3.48208,5.15578 -3.32684,7.41109 -4.24447,1.4059 -5.34168,2.08457 -3.75,2.31955 1.2375,0.1827 2.25,0.73336 2.25,1.2237 0,0.49033 3.9375,1.02288 8.75,1.18344 7.08947,0.23652 8.30632,0.49149 6.41209,1.34353 -2.09383,0.94181 -2.17213,1.18919 -0.75,2.36945 0.87335,0.72483 1.58791,1.99664 1.58791,2.82626 0,1.19533 0.7783,1.36951 3.75,0.83921 9.32481,-1.664 13.76165,-1.7555 15.66248,-0.323 2.56339,1.93182 1.41159,4.7305 -1.94684,4.7305 -3.30303,0 -6.46564,1.67369 -6.46564,3.4217 0,1.04865 -3.07982,1.44807 -13.75,1.78323 -9.71232,0.30507 -14.85119,0.91071 -17.5,2.06246 -4.69637,2.04205 -4.7356,3.25223 -0.15445,4.76414 2.78461,0.91901 6.16153,0.91024 14.97261,-0.0389 11.11474,-1.19726 17.78796,-0.8435 18.92946,1.00348 1.01236,1.63804 -4.81848,3.72361 -12.44878,4.45267 -5.6,0.53506 -8.12524,1.27914 -10.1644,2.99497 -2.11041,1.7758 -4.50965,2.43974 -10.79883,2.98835 -4.44709,0.38792 -8.08561,1.02737 -8.08561,1.42099 0,1.02957 4.9884,3.74646 8.5,4.62944 1.65,0.41489 7.69402,1.03854 13.43116,1.38589 l 10.43115,0.63155 0.78578,2.94973 c 0.43218,1.62236 0.64303,3.09249 0.46855,3.26696 -0.17447,0.17447 -4.77209,0.59483 -10.21693,0.93413 -5.44484,0.3393 -10.51684,0.94263 -11.27111,1.34074 -1.93486,1.02122 11.96388,4.49541 25.8714,6.46692 14.71283,2.08567 18.13411,2.83408 17.96566,3.93003 -0.0751,0.48833 0.43552,1.2414 1.13463,1.67347 1.02085,0.63092 1.00706,1.10374 -0.07,2.40156 -1.1597,1.39735 -2.98174,1.52481 -13.46862,0.94215 -9.77576,-0.54315 -13.22136,-0.35582 -17.76837,0.96603 -4.63394,1.34712 -6.56771,1.44108 -10.83296,0.52635 -3.82688,-0.82072 -5.8396,-0.81847 -7.65474,0.009 -5.57456,2.53994 0.59657,6.40692 13.7209,8.59785 10.01455,1.67179 14.97353,3.18915 14.97353,4.58166 0,1.99423 -4.63605,2.96629 -14.23208,2.98409 -5.64735,0.0105 -14.09292,0.0572 -18.76792,0.10374 -5.87925,0.0586 -12.97069,-0.84843 -23,-2.94176 -18.29111,-3.81775 -25.89429,-4.84925 -24.43038,-3.31441 1.20109,1.25928 11.85447,3.85508 30.43038,7.41466 6.875,1.31741 14.3,3.23628 16.5,4.26415 l 4,1.86886 -6.33656,0.31723 c -4.08537,0.20453 -12.43422,-0.80776 -23.5,-2.84934 -18.67027,-3.44457 -31.97181,-4.17665 -36.0669,-1.98503 -2.16372,1.15799 -3.14133,1.11533 -6.84386,-0.29868 -7.31173,-2.79237 -11.48004,-1.56744 -9.69938,2.85035 1.61662,4.01081 1.14594,4.5 -4.32973,4.5 h -5.27642 l 0.40317,-4.22763 c 0.36418,-3.81881 0.24519,-4.09653 -1.23042,-2.87188 -0.89847,0.74567 -2.19643,2.5301 -2.88436,3.9654 -1.90827,3.98149 -4.28272,3.72865 -11.77581,-1.25392 -7.39155,-4.91505 -7.91147,-4.84233 -8.90226,1.24524 -0.85827,5.27331 -3.32849,6.21538 -7.0211,2.67764 -1.67,-1.59997 -3.03637,-3.72484 -3.03637,-4.72194 0,-2.24339 -1.56853,-2.37969 -2.40162,-0.2087 -0.45362,1.18212 -1.61719,1.5087 -4.42221,1.2412 -3.49102,-0.33292 -3.77081,-0.17575 -3.37481,1.89579 0.36363,1.90225 -0.002,2.2588 -2.31876,2.2588 -1.51281,0 -4.51739,-0.52936 -6.67685,-1.17634 -3.11191,-0.93236 -4.04429,-1.76634 -4.49518,-4.02081 -1.00585,-5.02925 -1.81057,-3.78961 -1.81057,2.78909 0,5.00361 0.32779,6.41318 1.5,6.45028 0.825,0.0261 3.75,0.24629 6.5,0.48928 4.63902,0.40989 16.94462,1.1481 58.121,3.48664 16.80826,0.9546 23.81648,2.06429 28.24964,4.47309 2.31066,1.25553 -3.13814,1.43355 -44.95397,1.46873 -26.17084,0.022 -47.77084,-0.12984 -48,-0.33747 z m 8.33333,-5.34589 c -1.7875,-0.22182 -4.7125,-0.22182 -6.5,0 -1.7875,0.22183 -0.325,0.40333 3.25,0.40333 3.575,0 5.0375,-0.1815 3.25,-0.40333 z m -53.69113,-5.8084 c -1.06762,-0.80751 -2.66911,-1.4682 -3.55887,-1.4682 -0.88976,0 -2.49125,0.66069 -3.55887,1.4682 -1.78255,1.34825 -1.49181,1.46819 3.55887,1.46819 5.05068,0 5.34142,-0.11994 3.55887,-1.46819 z m 40.44113,0.62069 c 0,-1.10928 -5.78748,-6.08889 -7.07673,-6.08889 -0.5078,0 -0.92327,0.6199 -0.92327,1.37756 0,0.75765 -0.675,1.93775 -1.5,2.62244 -2.66526,2.21197 -1.61455,3 4,3 3.025,0 5.5,-0.41 5.5,-0.91111 z m -21,-1.65463 c 0,-2.03015 -1.82823,-5.43426 -2.91855,-5.43426 -0.4665,0 -1.08354,0.9 -1.3712,2 -0.28766,1.1 -1.28227,2 -2.21025,2 -0.92798,0 -1.92259,-0.9 -2.21025,-2 -0.84489,-3.23085 -3.06652,-2.23879 -5.03867,2.25 l -1.2082,2.75 h 7.47856 c 6.1205,0 7.47856,-0.28433 7.47856,-1.56574 z m -41.87331,-29.50206 c 3.54431,-1.89686 7.066,0.33047 6.84749,4.33076 -0.25713,4.70746 0.0343,5.5312 1.05698,2.98704 1.08088,-2.68907 6.29235,-3.11256 9.62007,-0.78174 1.88752,1.32207 2.2736,1.27229 3.87749,-0.5 2.42776,-2.68264 4.92079,-2.47186 6.28933,0.53174 1.65342,3.62888 2.64824,3.10305 4.25565,-2.24941 1.76365,-5.87275 4.62784,-7.04801 5.10845,-2.09616 0.27289,2.81166 0.78685,3.37007 3.63318,3.94732 1.82344,0.36981 4.38804,1.68013 5.69912,2.91183 3.84847,3.61544 8.61365,-0.005 5.10683,-3.87957 -1.83172,-2.02402 -2.16824,-5.13401 -0.55554,-5.13401 0.58616,0 1.91213,0.45297 2.94661,1.00661 1.34798,0.72141 2.10849,0.65058 2.68426,-0.25 2.16051,-3.37932 3.85773,-3.76822 7.76082,-1.77831 2.09063,1.06586 5.65546,2.1605 7.92186,2.43252 2.26639,0.27203 6.33896,0.74334 9.05016,1.04735 l 4.92945,0.55276 -2.17945,-2.31992 c -1.1987,-1.27595 -2.17945,-3.06106 -2.17945,-3.96692 0,-1.07239 -1.38079,-2.01881 -3.95778,-2.71272 -4.41697,-1.18937 -5.28153,-2.00613 -4.11737,-3.88977 0.63771,-1.03184 1.83452,-0.97357 6.11551,0.29775 6.61121,1.96331 7.43331,1.96412 9.38821,0.009 2.47329,-2.47329 1.86976,-3.42735 -2.17857,-3.44388 -2.0625,-0.008 -4.37015,-0.40811 -5.12812,-0.8882 -1.93822,-1.22765 -0.52983,-3.01593 1.87912,-2.38598 1.54771,0.40474 1.999,0.0301 1.999,-1.65962 0,-1.20031 0.49169,-3.1011 1.09264,-4.22399 1.51205,-2.8253 -0.0114,-4.09209 -5.84718,-4.86217 l -4.74546,-0.6262 6.67655,-3.14592 c 7.2258,-3.40471 8.84959,-4.92857 6.70157,-6.2891 -2.45704,-1.55626 -7.4319,-0.96789 -9.7025,1.14751 -4.29101,3.99767 -5.69748,-0.0889 -1.67562,-4.86865 4.20289,-4.99485 3.62252,-5.40427 -8,-5.64365 -1.65,-0.034 -3.5625,-0.42066 -4.25,-0.85927 -2.08011,-1.32708 -1.4071,-4.53041 1.32839,-6.32277 2.27463,-1.4904 2.382,-1.79934 0.91135,-2.62236 -1.09918,-0.61513 -3.83587,-0.38814 -8.03391,0.66638 -7.33079,1.84143 -11.07369,2.02663 -11.96047,0.5918 -0.34247,-0.55413 1.99348,-3.7688 5.19099,-7.14373 3.19751,-3.37493 4.91365,-5.66028 3.81365,-5.07856 -1.1,0.58172 -3.32169,2.44639 -4.93709,4.14372 -1.66888,1.75354 -3.96027,3.08607 -5.30671,3.08607 -2.24897,0 -2.29036,-0.11315 -0.8129,-2.22251 0.85618,-1.22238 1.5567,-3.21289 1.5567,-4.42336 0,-2.06091 -0.17485,-2.11518 -2.75,-0.8534 -1.5125,0.74109 -5.225,1.4941 -8.25,1.67335 -5.13248,0.30413 -5.52236,0.16786 -5.83466,-2.03943 -0.18407,-1.30093 0.15343,-2.85343 0.75,-3.45 2.51772,-2.51772 1.06307,-3.6421 -2.16534,-1.6737 -1.7875,1.08986 -4.06046,1.98325 -5.05103,1.9853 -1.09366,0.002 -2.34743,1.31147 -3.19222,3.33335 -1.70393,4.07806 -3.83022,5.9525 -6.20871,5.47328 -1.38809,-0.27968 -1.72222,-1.12813 -1.4655,-3.72125 0.26126,-2.63902 0.0143,-3.23684 -1.15223,-2.7892 -2.38201,0.91406 -2.85108,-0.48453 -0.67395,-2.00945 2.31909,-1.62435 2.65472,-4.28299 0.54069,-4.28299 -0.79912,0 -2.59912,0.52223 -4,1.16052 -2.05191,0.93491 -2.54705,1.86973 -2.54705,4.80887 0,4.4427 -1.95674,7.38312 -4.5661,6.86153 -1.64436,-0.3287 -1.88412,-1.09359 -1.60139,-5.10876 0.29415,-4.17731 0.1,-4.72216 -1.68261,-4.72216 -1.13687,0 -2.29178,0.87167 -2.6499,2 -0.75176,2.36859 -2.05706,2.59666 -2.86163,0.5 -1.08515,-2.82787 -2.63837,-1.5001 -2.63205,2.25 0.005,3.11567 0.51272,4.03815 3,5.4535 2.98693,1.69965 4.3437,5.52854 1.58376,4.46945 -0.77545,-0.29757 -3.03125,-0.0434 -5.01288,0.56475 -2.79562,0.858 -3.47531,1.50799 -3.03327,2.90073 0.86931,2.73895 -3.67345,3.38886 -11.6766,1.67051 -3.77703,-0.81074 -6.86733,-1.14246 -6.86733,-0.73694 0,0.40552 2.41543,2.1005 5.36762,3.76661 5.57347,3.14547 7.9849,6.1908 4.851,6.12618 -0.94524,-0.0195 -2.84362,-0.67854 -4.21862,-1.46456 -3.07251,-1.75641 -4.82026,-1.92026 -3.2,-0.3 0.66,0.66 1.2,2.235 1.2,3.5 0,1.88889 -0.53623,2.3 -3,2.3 -3.2228,0 -4.02555,1.39248 -1.38655,2.40516 1.02338,0.39271 1.42334,1.34614 1.09362,2.60699 -0.41598,1.59071 -0.0224,1.98785 1.96988,1.98785 1.54502,0 2.33326,0.4743 2.07738,1.25 -0.24936,0.75594 -2.67988,1.36931 -6.14938,1.55187 -7.2671,0.38239 -7.00343,2.04322 0.71732,4.5182 3.12275,1.00103 5.67773,2.40284 5.67773,3.11514 0,2.24118 -3.85686,6.31205 -6.64264,7.01124 l -2.67428,0.6712 3.22167,2.94253 c 3.37074,3.0787 5.16898,2.96576 8.04994,-0.50558 0.70961,-0.85503 1.94965,-1.5546 2.75565,-1.5546 1.14923,0 1.32337,0.841 0.807,3.89737 -0.41431,2.4523 -0.24832,4.15086 0.4477,4.58102 0.72118,0.44571 -0.12378,2.39563 -2.42778,5.60263 -2.57552,3.58494 -3.11411,4.91898 -1.98594,4.91898 2.16672,0 6.61887,-2.42559 8.72618,-4.75414 2.67484,-2.95567 6.7225,-1.86849 6.7225,1.80562 0,1.55008 0.47292,4.06219 1.05093,5.58247 l 1.05093,2.76415 2.94926,-5.16397 c 1.6221,-2.84018 3.9061,-5.67605 5.07557,-6.30193 z m 46.17186,-10.89172 c -4.82297,-2.94073 -6.74133,-7.35537 -6.77216,-15.58446 -0.0299,-7.97591 1.52163,-11.29504 6.77794,-14.50002 3.89469,-2.37474 11.36177,-2.5786 14.47888,-0.3953 5.65416,3.96034 6.91921,14.24129 2.83231,23.01816 -4.16287,8.94006 -10.44959,11.64891 -17.31697,7.46162 z m 14.50145,-16.24048 c 1.58562,-1.58562 1.52898,-5.96783 -0.10603,-8.20384 -1.81938,-2.48815 -5.79908,-1.68258 -7.60106,1.53861 -1.32074,2.36091 -1.29583,2.90659 0.23963,5.25 1.82804,2.78994 5.41328,3.46941 7.46746,1.41523 z m -65.0445,14.63091 c -9.03089,-4.89968 -9.08946,-27.22394 -0.0822,-31.32792 3.16511,-1.44212 9.56364,-1.40778 12.8042,0.0687 1.41438,0.64443 3.57306,2.78193 4.79705,4.75 2.88421,4.63753 3.09946,15.85549 0.4005,20.87251 -3.44761,6.40868 -11.70768,9.00692 -17.91956,5.63669 z m 12.31024,-15.46609 c 2.1545,-1.15306 2.61885,-5.81713 0.89908,-9.03056 -2.19556,-4.10244 -10.96482,-1.19358 -10.96482,3.63714 0,1.69998 1.00226,3.06909 3.25,4.43956 3.75194,2.2876 4.20511,2.35102 6.81574,0.95386 z m 196.43426,31.03518 c -0.33992,-0.55 -2.39148,-1 -4.55902,-1 -2.16754,0 -3.94098,0.45 -3.94098,1 0,0.55 2.05156,1 4.55902,1 2.7847,0 4.31848,-0.38919 3.94098,-1 z m 12.875,-17.08595 c 1.71155,-0.0692 1.57925,-0.24983 -0.67995,-0.92822 -3.52719,-1.05913 -10.44696,-0.0972 -8.52212,1.18465 0.72989,0.48608 2.62082,0.64658 4.20207,0.35665 1.58125,-0.28992 3.83125,-0.56581 5,-0.61308 z m -122.375,-3.91405 c -0.92023,-0.56873 -1.86288,-0.53712 -2.48328,0.0833 -0.66667,0.66667 -0.50557,1.30557 0.48328,1.91672 0.92023,0.56873 1.86288,0.53712 2.48328,-0.0833 0.66667,-0.66667 0.50557,-1.30557 -0.48328,-1.91672 z m 9.32739,-23.92739 c 0.66666,-0.66666 -0.30457,-0.80202 -2.9137,-0.40607 -2.15253,0.32667 -4.36369,1.04393 -4.91369,1.59393 -0.66667,0.66667 0.30456,0.80203 2.91369,0.40607 2.15253,-0.32666 4.3637,-1.04393 4.9137,-1.59393 z m 122.53797,-15.82141 c 3.424,-2.55638 3.81097,-4.25286 0.96797,-4.24361 -11.52799,0.0375 -25.57303,3.68268 -23.19023,6.01868 2.46297,2.41461 18.30561,1.14913 22.22226,-1.77507 z m -156.27822,-6.5725 c 1.48426,-1.27672 2.52186,-2.83625 2.30576,-3.46563 -0.22866,-0.66599 -2.06493,0.28864 -4.3929,2.28375 -2.75026,2.35703 -3.47066,3.43982 -2.30576,3.46563 0.93183,0.0207 2.90863,-1.00704 4.3929,-2.28375 z m 140.73753,-0.50476 c 6.50356,-0.93021 11.49106,-2.02488 11.08333,-2.43262 -1.54371,-1.5437 -16.26089,-0.60173 -26.408,1.69024 l -10.5,2.37168 7,0.031 c 3.85,0.017 12.3211,-0.73009 18.82467,-1.66029 z M 655.80235,180.14811 c -1.31382,-1.31382 -1.74702,-0.82947 -2.54499,2.84546 l -0.65098,2.99795 2.10961,-2.41008 c 1.43836,-1.64323 1.78402,-2.73567 1.08636,-3.43333 z m 107.94341,-0.22614 c 0,-1.04234 -0.72946,-1.46221 -2.17167,-1.25 -3.2015,0.47108 -3.54438,2.81955 -0.41166,2.81955 1.6805,0 2.58333,-0.54853 2.58333,-1.56955 z m 91.30843,-15.33888 c 1.6492,-1.6492 -5.30634,-2.29226 -10.60257,-0.98024 -5.02997,1.24605 -5.1045,1.31433 -2.20586,2.02082 3.56259,0.86832 11.54831,0.21954 12.80843,-1.04058 z M 549.1342,157.0614 c -0.7072,-1.84295 -6.72789,-4.09441 -6.13414,-2.29389 0.38314,1.16184 4.42862,3.67776 5.96432,3.70927 0.39523,0.008 0.47165,-0.62882 0.16982,-1.41538 z m 49.85631,-1.06988 c -0.47731,-2.49687 -1.31795,-3.09346 -2.58027,-1.83115 -0.5255,0.5255 1.98031,4.33115 2.85184,4.33115 0.11348,0 -0.009,-1.125 -0.27157,-2.5 z m 39.35793,-11.73661 c -0.35603,-1.78013 -1.29574,-3.88502 -2.08826,-4.67754 -2.36742,-2.36742 -3.02494,1.24132 -0.88593,4.86237 2.35281,3.983 3.78989,3.89369 2.97419,-0.18483 z m 140.45743,-2.81819 c 3.60807,-2.16986 7.09557,-3.9452 7.75,-3.9452 0.65444,0 1.18989,-0.49152 1.18989,-1.09227 0,-0.60075 0.9063,-2.24445 2.014,-3.65266 1.10771,-1.40822 1.85584,-2.71856 1.66253,-2.91187 -0.59381,-0.59381 -23.58031,14.96366 -24.09644,16.30868 -0.69932,1.8224 3.45669,0.11848 11.48002,-4.70668 z m -24.31011,-1.90242 c 2.0353,-1.91833 2.9732,-4.04278 1.7848,-4.04278 -0.94812,0 -7.5348,6.24049 -7.5348,7.13878 0,1.19658 2.78887,-0.30504 5.75,-3.096 z m -17.10843,-14.37016 1.61289,-3.17262 -2.64639,2.44232 c -2.63268,2.42966 -8.60807,11.07617 -8.60807,12.45605 0,1.26241 7.96029,-8.41863 9.64157,-11.72575 z m 57.35843,7.82738 c 0.69443,-0.83674 0.80272,-1.5 0.24489,-1.5 -0.55,0 -1.5602,0.675 -2.24489,1.5 -0.69443,0.83674 -0.80272,1.5 -0.24489,1.5 0.55,0 1.5602,-0.675 2.24489,-1.5 z m -256.5864,-0.86455 c -0.28799,-0.7505 -1.658,-1.88141 -3.04446,-2.51312 -2.18778,-0.99682 -2.4771,-0.92141 -2.18974,0.5707 0.18211,0.94561 1.45374,2.03165 2.82585,2.41344 1.37211,0.3818 2.59313,0.73903 2.71337,0.79385 0.12023,0.0548 -0.017,-0.51437 -0.30502,-1.26487 z m 244.3364,-26.25688 c 7.97385,-7.84958 9.67031,-10.37857 6.96199,-10.37857 -2.4096,0 -17.18143,12.71507 -26.46199,22.77756 -5.0875,5.51614 -9.25,10.30542 -9.25,10.64283 0,1.39737 21.11247,-15.52332 28.75,-23.04182 z m -193.21721,14.68484 c -1.58072,-3.05678 -3.53279,-4.85662 -3.53279,-3.25729 0,1.00054 3.85547,6.19388 4.59826,6.19388 0.24921,0 -0.23026,-1.32146 -1.06547,-2.93659 z m 52.46721,-2.44097 c 0,-3.28565 -2.0173,-6.27181 -3.34201,-4.9471 -1.64772,1.64772 0.25895,8.32466 2.37719,8.32466 0.53065,0 0.96482,-1.5199 0.96482,-3.37756 z m 54.84401,-18.12244 c 0.80892,-2.99397 0.38198,-7.05933 -0.63459,-6.04275 -0.61987,0.61986 -4.15255,10.08071 -4.87017,13.04275 -0.80382,3.31782 4.55988,-3.5028 5.50476,-7 z m 42.5671,0.42327 c 2.45094,-2.91278 3.41337,-5.92327 1.89361,-5.92327 -1.50055,0 -6.30472,5.47654 -6.30472,7.18709 0,2.648 1.47517,2.22535 4.41111,-1.26382 z M 579.08852,98.24152 c -0.67974,-3.63808 -2.34276,-6.12047 -2.34276,-3.49705 0,1.60964 2.00676,6.74705 2.63552,6.74705 0.17296,0 0.0412,-1.4625 -0.29276,-3.25 z M 575.8667,87.28943 c -0.93383,-2.52439 -3.68479,-4.56739 -4.73542,-3.51676 -1.27631,1.27631 1.48981,5.71885 3.56082,5.71885 1.63001,0 1.84212,-0.39764 1.1746,-2.20209 z m 74.76848,-13.04791 -0.11058,-12.25 -1.40633,5.5 c -1.89666,7.41762 -2.10494,15.41255 -0.45336,17.40259 0.72916,0.87858 1.49564,1.59741 1.70329,1.59741 0.20766,0 0.3278,-5.5125 0.26698,-12.25 z m 170.22265,33.20773 c 0.84399,-1.27112 2.44915,-2.91841 3.56702,-3.66065 1.72231,-1.14357 2.21733,-1.12681 3.24362,0.1098 0.98368,1.18526 0.77602,1.73402 -1.10579,2.92209 -1.27431,0.80453 -3.42447,1.79513 -4.77815,2.20133 -2.38132,0.71458 -2.41141,0.66352 -0.9267,-1.57257 z"
       id="path293"
       sodipodi:nodetypes="csssssscssssssssssssssssscsssssscccssscsssscssssscssssssssssscssssssssssssssssssssscssssssssssssssssssssscsssssssssssssscsscsssssssssssssssssssssssssssssssssssssscsssscsssssssssssssssssssssssscsssssssssssssssssssssssssssssssssssssssscsssssssssssssssssssssssssscsssssssssssssssssssssssssssssscssssssssssscsssssssscsssssscsssssssssssssssssssccssssssssssssssssssssscsssssssssssscsssssscsssssccssssscssssssssssssssssssssscssssssssssssscsssscssssssssssssssscsssssssssscssssssssssssssssssssssssssssssssssssssssssssssssssssssssscssssscsssssssssssssscsscsssssssssssssssscsssssssssssssssssssssssssssssssssssssssssssscssssssssss" />
  </g>
</svg>
