<?xml version="1.0" encoding="UTF-8" standalone="no"?>
<!-- Created with Inkscape (http://www.inkscape.org/) -->

<svg
   width="378"
   height="308"
   viewBox="0 0 100.0125 81.491666"
   version="1.1"
   id="svg301"
   inkscape:version="1.2.2 (b0a84865, 2022-12-01)"
   sodipodi:docname="ferris-left.svg"
   xmlns:inkscape="http://www.inkscape.org/namespaces/inkscape"
   xmlns:sodipodi="http://sodipodi.sourceforge.net/DTD/sodipodi-0.dtd"
   xmlns="http://www.w3.org/2000/svg"
   xmlns:svg="http://www.w3.org/2000/svg">
  <sodipodi:namedview
     id="namedview303"
     pagecolor="#ffffff"
     bordercolor="#666666"
     borderopacity="1.0"
     inkscape:showpageshadow="2"
     inkscape:pageopacity="0.0"
     inkscape:pagecheckerboard="0"
     inkscape:deskcolor="#d1d1d1"
     inkscape:document-units="mm"
     showgrid="false"
     inkscape:zoom="0.2102413"
     inkscape:cx="394.78447"
     inkscape:cy="561.25984"
     inkscape:window-width="750"
     inkscape:window-height="480"
     inkscape:window-x="213"
     inkscape:window-y="108"
     inkscape:window-maximized="0"
     inkscape:current-layer="layer1" />
  <defs
     id="defs298" />
  <g
     inkscape:label="Layer 1"
     inkscape:groupmode="layer"
     id="layer1">
    <path
       d="m 38.168978,81.059669 c 3.315946,-0.86406 5.231291,-2.55992 7.069428,-6.25933 1.693064,-3.40745 2.428582,-4.22037 5.026435,-5.55547 1.2054,-0.61948 2.813233,-1.53183 3.57296,-2.02745 1.816476,-1.18501 2.656737,-1.45769 7.217635,-2.34228 2.110052,-0.40925 4.461536,-1.01571 5.225521,-1.34769 0.920745,-0.40011 1.390914,-0.49702 1.394558,-0.28744 0.003,0.17389 0.171669,1.92351 0.374769,3.88804 0.598823,5.79226 1.699138,7.48132 4.064645,6.23952 0.788321,-0.41384 2.318742,-1.96497 3.154125,-3.19681 0.296058,-0.43656 1.694984,-3.05594 3.108719,-5.82083 1.413737,-2.7649 2.658585,-5.12032 2.766331,-5.23427 0.361827,-0.38265 3.862022,1.67173 6.914784,4.05854 3.951074,3.08914 6.2557,4.31662 8.141211,4.33613 1.256557,0.013 1.49148,-0.0762 2.155142,-0.8185 1.994979,-2.23134 2.037209,-9.66672 0.104225,-18.34919 -1.436523,-6.45249 -3.020298,-10.34476 -4.900491,-12.0434 -0.83562,-0.75493 -1.227727,-0.92119 -2.172586,-0.92119 -1.144462,0 -1.835499,0.34762 -4.052403,2.03854 l -0.842976,0.64297 -0.387482,-0.61315 c -0.213117,-0.33723 -0.579364,-1.28995 -0.813882,-2.11715 -0.264801,-0.93401 -0.675868,-1.70022 -1.084665,-2.02179 -0.636328,-0.50053 -0.653248,-0.59591 -0.507669,-2.86163 0.132805,-2.06693 0.08628,-2.44542 -0.393833,-3.20373 -0.469648,-0.74178 -0.693428,-0.85989 -1.629171,-0.85989 -0.952619,0 -1.305382,-0.1961 -2.89626,-1.60999 -2.062546,-1.83308 -2.376776,-2.50154 -2.376776,-5.05611 0,-1.57244 -0.08763,-1.91225 -0.634032,-2.45865 -0.60149,-0.60149 -0.755208,-0.62618 -2.995483,-0.48104 -2.542619,0.16473 -3.779866,-0.0891 -4.960297,-1.01762 -1.020498,-0.80272 -1.619038,-2.18473 -2.498566,-5.7690799 C 64.877136,8.213879 64.212174,6.234614 63.835201,5.591356 63.216608,4.535809 63.0524,4.4218 62.150639,4.4218 c -2.149919,0 -5.391068,1.53036 -7.917431,3.738339 -0.478004,0.41777 -0.979474,0.75958 -1.114375,0.75958 -0.1349,0 -1.079405,-1.39899 -2.098897,-3.108857 C 48.83643,2.148738 48.549093,1.778004 47.194034,0.87458102 45.985981,0.06916305 44.412906,-0.02946795 42.836331,0.60135102 41.761729,1.031321 41.177449,2.009594 39.640786,5.951729 c -0.299643,0.768702 -0.736666,1.69046 -0.971166,2.04835 -0.419605,0.6404 -0.438854,0.6434 -1.215131,0.18986 C 37.020665,7.936469 35.667213,6.643334 34.44682,5.316295 33.226426,3.989256 31.866738,2.75389 31.425294,2.571039 c -0.72013,-0.298288 -0.90469,-0.264919 -1.79559,0.324649 -1.333288,0.88233 -2.331873,2.806772 -3.23678,6.237831 -0.410353,1.5559 -0.877466,3.16949 -1.038026,3.58575 -0.273664,0.70948 -0.328893,0.7328 -0.882674,0.3726 -0.324911,-0.21132 -0.971476,-0.95775 -1.436812,-1.65872 -0.465333,-0.70096 -1.001113,-1.37283 -1.190623,-1.4930299 -0.56939,-0.36115 -2.17128,-0.25461 -2.80074,0.1862899 -1.16354,0.81497 -1.47451,1.88245 -1.59462,5.47404 -0.062,1.85539 -0.15539,3.37343 -0.20742,3.37343 -0.052,0 -0.48445,-0.23768 -0.96091,-0.52817 -0.94266,-0.57475 -2.32488,-0.68857 -3.1299,-0.25773 -0.27997,0.14983 -0.70209,0.64575 -0.93805,1.10204 -0.56562,1.09378 -0.57959,4.36893 -0.0234,5.48383 0.40427,0.81039 0.40198,0.81598 -0.69821,1.70451 -0.6071,0.49029 -1.7973004,1.34683 -2.6449004,1.90342 -1.41864,0.93157 -1.60637,0.98733 -2.3628,0.70181 -0.73861,-0.2788 -0.91664,-0.23776 -1.76032,0.40575 -0.51624,0.39375 -1.29845,1.12499 -1.73824,1.62499 l -0.79963,0.90908 -0.15551,4.25701 c -0.1306,3.57538 -0.29504,4.82547 -1.027,7.80728 l -0.871492,3.55028 0.830942,0.68306 0.83095,0.68305 -0.002,3.48683 c -0.002,2.81934 0.0772,3.56643 0.41339,3.90261 0.73902,0.73901 1.61703,0.48665 3.15611,-0.90714 1.62176,-1.46868 2.50255,-1.67351 3.15999,-0.73488 0.61091,0.87219 0.51006,1.61146 -0.49104,3.59939 -0.90497,1.79703 -1.47833,4.07109 -1.47833,5.86338 0,2.32514 3.19764,6.37835 6.1159304,7.75231 1.60746,0.75682 3.90841,1.36462 4.17178,1.10199 0.0898,-0.0896 0.20451,-1.28177 0.25483,-2.64931 l 0.0915,-2.48643 1.92151,0.16243 c 1.73358,0.14654 2.00228,0.10271 2.74735,-0.44815 2.284886,-1.68929 1.541246,-5.6542 -1.62149,-8.64538 -0.80157,-0.7581 -2.12874,-1.70761 -2.94927,-2.11004 -1.57579,-0.77284 -1.65322,-0.90575 -2.42795,-4.16774 l -0.18479,-0.77805 0.76894,0.84562 c 2.72789,2.99986 9.683723,7.05494 15.688169,9.14581 l 3.25147,1.13223 -1.280134,0.48261 c -0.704075,0.26543 -1.805429,0.84039 -2.447451,1.27768 -1.188487,0.80948 -4.78581,4.36557 -4.78581,4.73095 0,0.29708 2.58885,2.28992 3.733192,2.87372 0.545446,0.27826 1.78363,0.72287 2.751518,0.98801 l 1.759797,0.48207 -1.222396,1.57266 c -2.011543,2.58792 -3.115347,4.30101 -2.946906,4.57356 0.606012,0.98055 5.862884,1.6251 8.22792,1.00884 z m -4.538953,-2.22795 c -0.206357,-0.13132 0.390072,-1.29756 1.836314,-3.59068 1.704451,-2.70254 2.086062,-3.4861 1.868387,-3.83636 -0.300464,-0.48348 -1.97802,-0.90407 -5.301213,-1.32909 -2.263227,-0.28946 -3.257243,-0.69739 -3.257243,-1.33674 0,-0.20823 0.513572,-0.87068 1.141269,-1.47212 2.079009,-1.99204 5.814169,-2.55951 8.319569,-1.26396 0.971169,0.50219 1.170705,0.77707 2.017266,2.77893 0.262776,0.62138 0.594227,0.98933 0.886885,0.98453 1.062263,-0.0174 7.379653,-6.33137 9.364983,-9.35993 0.975238,-1.48769 1.355908,-3.09617 0.812271,-3.43216 -0.295262,-0.18248 -1.578295,1.48093 -1.788605,2.31886 -0.157173,0.62624 -0.294044,0.6913 -1.454187,0.6913 -2.304663,0 -7.33797,-0.78539 -10.905706,-1.70171 -6.372487,-1.63669 -11.918924,-4.1131 -17.257286,-7.70516 -3.8645,-2.60033 -3.74096,-2.48505 -4.10276,-3.82868 -0.71872,-2.6691 -2.38721,-5.02975 -3.54265,-5.01228 -0.55274,0.008 -1.6798,0.68706 -1.4634,0.88124 0.0621,0.0558 0.51456,0.30574 1.00538,0.55551 l 0.89241,0.45413 -0.23095,2.95295 c -0.12702,1.62413 -0.22887,4.14359 -0.22633,5.59879 0.004,2.28413 0.0944,2.82462 0.66146,3.95358 0.72696,1.44736 0.7797,1.48442 3.03809,2.13551 2.12891,0.61376 3.86191,2.29839 4.46857,4.34383 0.61436,2.07143 0.5744,2.49393 -0.21709,2.29528 -0.35382,-0.0888 -1.35102,-0.58304 -2.21599,-1.0983 -1.63707,-0.9752 -3.11511,-1.36216 -3.69886,-0.96839 -0.27258,0.18388 -0.20666,0.90208 0.33073,3.60284 0.85458,4.29489 0.85374,4.38878 -0.039,4.38878 -1.811,0 -4.3985,-2.09601 -5.4098004,-4.38221 -1.25665,-2.84086 -1.06748,-5.11605 0.61721,-7.42372 l 0.9424504,-1.29095 -0.7689404,-2.51354 c -1.91278,-6.25257 -2.19031,-8.84808 -1.41454,-13.22916 0.63978,-3.61303 2.1742504,-8.99381 2.8606004,-10.03096 2.07643,-3.13768 9.45322,-11.40404 11.25294,-12.60993 3.722037,-2.49391 9.84205,-5.9734 13.234821,-7.52455 2.128187,-0.973 4.403198,-2.0418099 5.055584,-2.3751299 1.176597,-0.6011501 1.181394,-0.6092001 0.595313,-0.9983401 -0.766887,-0.50919 -0.74661,-0.86136 0.189587,-3.292622 1.178097,-3.059475 1.28316,-3.186716 2.501085,-3.029114 1.425847,0.184509 2.07636,0.95605 3.181556,3.773484 0.519893,1.325346 0.945261,2.473292 0.945261,2.551002 0,0.0777 -0.297656,0.21599 -0.661458,0.30731 -1.5166,0.38064 -0.393803,1.41808 2.116667,1.95575 2.846517,0.60965 2.753666,0.6258 4.480459,-0.7793299 0.882727,-0.7183 2.32379,-1.6623601 3.202363,-2.0979201 3.590467,-1.779998 4.04037,-1.24935 4.726961,5.57534 l 0.146402,1.45521 -1.163172,0.48026 c -0.639741,0.26414 -1.216144,0.62133 -1.28089,0.79375 -0.06475,0.17242 0.932045,1.29163 2.215097,2.48713 l 2.332821,2.17363 1.427429,-0.63128 c 2.664947,-1.17856 5.835047,-2.03384 7.214688,-1.94648 l 1.304091,0.0826 -0.0319,1.32877 c -0.02188,0.91103 -0.288621,1.83733 -0.848503,2.94645 -0.44913,0.88972 -0.958527,2.18132 -1.131993,2.87021 l -0.315392,1.25253 -1.447546,-0.17013 c -1.74331,-0.20489 -2.270675,0.0924 -1.898864,1.0703 0.137634,0.362 0.250243,1.05258 0.250243,1.53461 0,0.48247 0.191265,1.03515 0.425505,1.22956 0.362152,0.30056 0.478994,0.27583 0.784728,-0.16604 0.754761,-1.09086 0.943438,-1.18064 2.481091,-1.18064 0.854585,0 2.487001,-0.17857 3.627591,-0.39683 2.530729,-0.48426 4.073263,-0.5054 4.676811,-0.0641 0.421353,0.3081 0.393955,0.42942 -0.368487,1.63167 -1.206953,1.90316 -3.436924,3.9225 -5.568757,5.04275 -1.606862,0.84438 -1.851123,1.06481 -1.720284,1.55248 0.08387,0.31261 0.15412,0.77293 0.156107,1.02295 0.0021,0.25001 0.302826,0.61134 0.668533,0.80296 0.655521,0.34346 0.619549,0.37988 -2.544283,2.576 -3.477303,2.4137 -6.252081,4.92265 -6.952885,6.28678 -0.39366,0.76627 -0.396849,0.8599 -0.02929,0.8599 0.762979,0 3.049175,-1.33165 5.766274,-3.3587 3.109375,-2.31969 4.867351,-3.17995 7.130978,-3.48952 1.361869,-0.18625 3.217367,-0.0393 3.492229,0.27664 0.402951,0.46313 0.941878,1.97021 1.081845,3.02533 0.332062,2.50321 -0.631327,5.55483 -4.740997,15.01751 -1.209908,2.78586 -2.481662,5.87839 -2.826125,6.8723 -0.35577,1.02652 -1.007896,2.22653 -1.509729,2.77812 l -0.88343,0.97102 0.137562,-3.175 c 0.07566,-1.74625 0.317413,-4.42515 0.537223,-5.95312 0.470501,-3.27057 0.530207,-8.14996 0.122963,-10.04887 -0.158488,-0.73901 -0.585793,-1.69737 -0.949561,-2.12969 -0.767043,-0.91158 -1.67269,-1.05438 -1.67269,-0.26374 0,0.28725 -0.361315,1.43183 -0.802921,2.54351 -0.441605,1.11168 -0.875167,2.54835 -0.963475,3.19261 -0.112064,0.8176 -0.329041,1.26017 -0.718433,1.46538 -0.306835,0.16171 -1.212723,0.80559 -2.013088,1.43086 -1.534959,1.19914 -3.067553,1.95786 -3.954875,1.95786 -0.353878,0 -0.711743,-0.35177 -1.067695,-1.04949 -0.454625,-0.89114 -1.493863,-1.83967 -1.700021,-1.55164 -0.03448,0.0482 -0.272474,0.65371 -0.528881,1.34564 -0.626155,1.68973 -2.318745,3.92569 -4.579589,6.04978 -2.3511,2.20888 -3.522223,3.01041 -6.822064,4.66911 -3.552589,1.78574 -3.889073,2.17717 -4.09103,4.75902 -0.08817,1.1272 -0.304845,2.30906 -0.481496,2.62636 -0.831337,1.49323 -3.84868,2.69586 -6.804557,2.7121 -1.018646,0.006 -1.989614,-0.0773 -2.157703,-0.1843 z m 7.184786,-25.04175 c 1.899727,-0.84434 3.075223,-3.17042 3.086746,-6.10807 0.01429,-3.64537 -1.556848,-6.48301 -3.589507,-6.48301 -1.072539,0 -2.660938,0.58178 -3.390159,1.24172 -0.731224,0.66175 -0.558901,0.93311 0.307906,0.48486 1.726274,-0.89269 3.45377,-0.0588 3.451368,1.66606 -0.0026,1.83014 -1.883349,4.00993 -3.463367,4.01395 -0.745683,0.002 -1.514766,-0.69793 -1.98711,-1.80816 l -0.299363,-0.70364 -0.200322,1.01226 c -0.421245,2.12861 0.626941,5.31054 2.141969,6.50226 0.825529,0.64936 2.695742,0.7356 3.941839,0.18177 z m -1.384416,-4.04036 c -0.139806,-0.42482 0.796748,-0.89466 1.23879,-0.62147 0.543874,0.33614 0.114048,1.11816 -0.56007,1.01899 -0.316675,-0.0466 -0.622099,-0.22547 -0.67872,-0.39752 z m -12.903084,-2.16383 c 1.795288,-1.10894 2.54679,-2.7091 2.557521,-5.4457 0.0097,-2.47742 -0.463727,-3.97889 -1.646774,-5.22253 -0.809316,-0.85077 -1.132753,-1.01033 -2.047955,-1.01033 -0.597768,0 -1.402799,0.14395 -1.788956,0.3199 l -0.702108,0.3199 0.888097,0.2911 c 1.301758,0.42669 1.947296,1.82532 1.540221,3.33708 -0.374232,1.3898 -1.791261,2.87577 -2.742338,2.87577 -0.68833,0 -1.74625,-0.81091 -1.74625,-1.33853 0,-0.15411 -0.13412,-0.19731 -0.29804,-0.096 -0.19358,0.11964 -0.24874,0.72791 -0.15737,1.73551 0.15214,1.67781 1.09374,3.60816 2.10579,4.31703 0.820102,0.57442 3.047827,0.52852 4.038162,-0.0832 z m -1.389139,-3.14561 c -0.144663,-0.43448 0.68434,-0.74463 1.039913,-0.38905 0.152162,0.15216 0.19259,0.41269 0.08984,0.57895 -0.233773,0.37825 -0.982483,0.2524 -1.12975,-0.1899 z m 15.329106,21.64529 c -0.08031,-0.24093 0.06516,-0.28221 0.514668,-0.14606 0.834512,0.25276 1.123413,0.54834 0.895847,0.91655 -0.215622,0.34888 -1.220327,-0.19993 -1.410515,-0.77049 z m 53.59553,-4.05064 c -1.241629,-1.49159 -3.500212,-4.07063 -5.01908,-5.73122 l -2.761572,-3.01923 0.378119,-1.08181 c 0.269864,-0.77208 0.344648,-1.86557 0.261212,-3.81935 l -0.116906,-2.73755 0.883761,-1.0578 c 0.486069,-0.58178 0.883761,-1.21443 0.883761,-1.40588 0,-0.19144 -0.352139,-1.09268 -0.782534,-2.00275 -0.430392,-0.91007 -0.713459,-1.76643 -0.629036,-1.90303 0.08442,-0.13661 0.763984,-0.53263 1.510138,-0.88005 1.33544,-0.62181 2.617534,-0.79634 3.463941,-0.47154 0.57911,0.22223 1.487636,2.07321 2.633708,5.36579 1.699942,4.88381 2.481656,9.87375 2.561912,16.35356 0.03858,3.11465 -0.02896,3.87598 -0.393123,4.43177 -0.241837,0.36909 -0.479549,0.67107 -0.528248,0.67107 -0.0487,0 -1.104424,-1.22039 -2.346053,-2.71198 z M 5.0132286,46.358259 c 0.35722,-3.65119 0.12899,-9.36196 -0.46125,-11.54139 -0.4113,-1.5187 -0.42701,-1.86631 -0.11803,-2.61223 0.67356,-1.62612 2.98138,-1.99639 4.22072,-0.67717 l 0.58235,0.61988 -1.1908,1.61759 c -1.75391,2.38251 -1.86478,2.90161 -1.65711,7.759 0.19145,4.47822 0.0254,5.7193 -0.92723,6.93038 -0.30714,0.39046 -0.59198,0.6739 -0.63298,0.62985 -0.041,-0.044 0.0419,-1.2707 0.18433,-2.72591 z m 79.0609584,-4.34779 c 0,-0.13572 -0.238125,-0.32233 -0.529167,-0.41471 -0.291042,-0.0924 -0.529167,-0.32193 -0.529167,-0.51013 0,-0.41319 -2.688546,-1.87155 -3.937829,-2.13602 -1.087506,-0.23022 -0.633113,-0.65086 0.709824,-0.65709 1.128207,-0.005 2.026946,0.47359 4.051873,2.15875 1.427459,1.18795 1.57934,1.39723 1.139195,1.56973 -0.707281,0.27718 -0.904729,0.27489 -0.904729,-0.0105 z m -1.455209,-4.78034 c 0,-0.19402 0.148829,-0.40238 0.33073,-0.46302 0.196741,-0.0656 0.330729,0.122 0.330729,0.46302 0,0.34102 -0.133988,0.5286 -0.330729,0.46302 -0.181901,-0.0606 -0.33073,-0.26899 -0.33073,-0.46302 z m -6.53873,-11.1125 c 0.138699,-0.945 0.40935,-1.00255 0.96748,-0.20571 0.57799,0.8252 0.519396,0.99946 -0.33605,0.99946 -0.680529,0 -0.73743,-0.0715 -0.63143,-0.79375 z m -62.373299,-5.04913 c -0.0211,-0.73969 0.3088,-0.77169 0.85088,-0.0825 0.45912,0.58367 0.48439,0.76367 0.19375,1.38009 l -0.33422,0.70888 -0.34924,-0.79375 c -0.19208,-0.43657 -0.3546,-0.98227 -0.36117,-1.21268 z m 7.00544,-6.48798 c -0.30134,-3.21574 0.73985,-3.41548 1.51994,-0.29159 l 0.38276,1.53275 -0.68973,0.37489 c -0.37934,0.20618 -0.76502,0.37964 -0.85707,0.38547 -0.092,0.006 -0.2522,-0.89486 -0.3559,-2.00152 z m 7.270131,-2.55727 c 0,-0.44638 1.194908,-4.18607 1.576588,-4.934227 0.79524,-1.558798 1.227342,-1.801169 1.968987,-1.104429 0.340805,0.32017 0.834202,0.980538 1.096441,1.467486 0.475518,0.88298 0.474898,0.88762 -0.230526,1.72597 -0.389027,0.4623301 -0.707324,1.12912 -0.707324,1.48176 0,0.48602 -0.144041,0.64319 -0.595312,0.64957 -0.327422,0.005 -0.826429,0.18323 -1.108903,0.39688 -0.421632,0.3189 -1.999951,0.56907 -1.999951,0.31699 z"
       style="fill:#000000;stroke-width:0.264583"
       id="path503" />
  </g>
</svg>
